<svg width="24" height="24" viewBox="0 0 24 24" fill="none" xmlns="http://www.w3.org/2000/svg">
<path d="M11.625 0.375C18.0469 0.375 23.25 5.57812 23.25 12C23.25 18.4219 18.0469 23.625 11.625 23.625C5.20312 23.625 0 18.4219 0 12C0 5.57812 5.20312 0.375 11.625 0.375ZM19.5469 16.2656C19.6406 16.0312 19.5 15.8438 19.3125 15.7969C17.1562 15.4219 16.1719 13.1719 16.125 13.0781C16.0312 12.8438 15.9844 12.6562 16.0312 12.5156C16.1719 12.1875 16.6406 12.0469 16.9219 11.9531C17.0156 11.9531 17.1094 11.9062 17.1562 11.8594C17.7188 11.6719 18 11.3906 17.9531 11.1094C17.9531 10.875 17.7656 10.6406 17.4844 10.5469C17.2969 10.4531 17.0156 10.4531 16.8281 10.5469C16.5938 10.6875 16.3594 10.7344 16.1719 10.7344C16.0312 10.7344 15.9375 10.6875 15.8906 10.6875C15.9375 9.5625 16.125 7.96875 15.7031 7.07812C14.9531 5.34375 13.4062 4.5 11.7656 4.5C11.7188 4.5 11.4844 4.5 11.4375 4.5C10.7812 4.5 8.57812 4.6875 7.5 7.07812C7.125 7.96875 7.26562 9.5625 7.3125 10.6875C7.26562 10.6875 7.17188 10.7344 7.03125 10.7344C6.79688 10.7344 6.5625 10.6875 6.28125 10.5469C5.95312 10.4062 5.34375 10.6406 5.25 11.0156C5.20312 11.25 5.29688 11.5781 6.04688 11.9062C6.32812 12 7.03125 12.1406 7.17188 12.5156C7.26562 12.6562 7.21875 12.8438 7.125 13.0781C7.07812 13.0781 7.07812 13.125 7.07812 13.125C7.03125 13.2188 6.09375 15.4219 3.89062 15.7969C3.75 15.7969 3.60938 15.9844 3.60938 16.125C3.65625 16.7812 5.10938 17.0156 5.76562 17.1562C5.8125 17.2031 5.85938 17.5781 5.95312 17.9062C6 18 6.09375 18.1875 6.375 18.1875C6.60938 18.1875 6.98438 18 7.54688 18C8.39062 18 8.67188 18.1875 9.32812 18.6562C9.79688 18.9844 10.5938 19.5938 11.5781 19.5C12.5625 19.5469 13.2188 19.125 13.875 18.6562C14.5312 18.1875 14.8125 18 15.6562 18C16.2656 18 16.5469 18.1406 16.875 18.1406C17.0625 18.1406 17.2031 18.0469 17.25 17.8594C17.3438 17.5781 17.3906 17.2031 17.4375 17.1562C18.7031 16.9219 19.4062 16.6406 19.5469 16.2656Z" fill="#334155"/>
</svg>
