<svg width="121" height="55" viewBox="0 0 121 55" fill="none" xmlns="http://www.w3.org/2000/svg">
<g id="SVG" clip-path="url(#clip0_3_146)">
<path id="Vector" d="M79.4475 5.9668C79.0467 5.97694 78.6657 6.14328 78.3857 6.43036C78.1058 6.71743 77.9492 7.1025 77.9492 7.50344C77.9492 7.90439 78.1058 8.28946 78.3857 8.57653C78.6657 8.8636 79.0467 9.02995 79.4475 9.04009H79.4918C79.8926 9.02995 80.2736 8.8636 80.5536 8.57653C80.8335 8.28946 80.9901 7.90439 80.9901 7.50344C80.9901 7.1025 80.8335 6.71743 80.5536 6.43036C80.2736 6.14328 79.8926 5.97694 79.4918 5.9668H79.4475ZM58.8722 43.4895C58.4645 43.4895 58.0735 43.6515 57.7852 43.9397C57.4969 44.228 57.335 44.619 57.335 45.0267C57.335 45.4343 57.4969 45.8253 57.7852 46.1136C58.0735 46.4018 58.4645 46.5638 58.8722 46.5638H83.0895C83.4972 46.5638 83.8882 46.4018 84.1765 46.1136C84.4648 45.8253 84.6268 45.4343 84.6268 45.0267C84.6268 44.619 84.4648 44.228 84.1765 43.9397C83.8882 43.6515 83.4972 43.4895 83.0895 43.4895H58.8722Z" fill="#334155"/>
<path id="Vector_2" fill-rule="evenodd" clip-rule="evenodd" d="M44.6869 0.422852H116.251C117.335 0.426222 118.373 0.858099 119.139 1.62422C119.906 2.39033 120.338 3.42848 120.342 4.51206V49.4923C120.338 50.5759 119.907 51.6142 119.14 52.3804C118.374 53.1466 117.336 53.5784 116.252 53.5815H44.6869C43.6033 53.5784 42.5649 53.1466 41.7986 52.3804C41.0324 51.6142 40.6005 50.5759 40.5974 49.4923V4.51206C40.6005 3.42849 41.0324 2.39019 41.7986 1.62399C42.5649 0.857791 43.6033 0.425965 44.6869 0.422852ZM82.822 27.4108L99.0728 15.2229H93.7323C93.3246 15.2229 92.9336 15.0609 92.6453 14.7726C92.357 14.4844 92.195 14.0934 92.195 13.6857C92.195 13.278 92.357 12.8871 92.6453 12.5988C92.9336 12.3105 93.3246 12.1486 93.7323 12.1486H103.171L107.317 9.03988H85.7913C85.3905 9.02974 85.0094 8.86339 84.7295 8.57632C84.4496 8.28925 84.2929 7.90417 84.2929 7.50323C84.2929 7.10229 84.4496 6.71722 84.7295 6.43014C85.0094 6.14307 85.3905 5.97673 85.7913 5.96658H110.702C110.903 5.96658 111.094 6.00494 111.27 6.07476L114.717 3.48926H46.2212L78.1169 27.4108C78.6903 27.8475 79.5705 28.1209 80.4695 28.1169C81.3674 28.1209 82.2477 27.8475 82.822 27.4108ZM89.1668 26.4844L84.6603 29.8645C83.4338 30.7782 81.9408 31.1804 80.4685 31.1824C78.9952 31.1794 77.5032 30.7772 76.2777 29.8645L71.7712 26.4844L45.8789 50.4571C45.8758 50.4611 45.8725 50.4651 45.8691 50.4689L45.8593 50.4787L45.8494 50.4876L45.8357 50.5004L45.8298 50.5063L45.8219 50.5151H115.117L115.094 50.4925C115.082 50.4819 115.071 50.4704 115.06 50.4581L89.1668 26.4844ZM69.3025 24.6326L43.665 5.40602V48.3181L69.3025 24.6326ZM91.6384 24.6326L117.274 5.40602V48.3171L91.6364 24.6326H91.6384Z" fill="#334155"/>
<path id="Vector_3" d="M3.11528 23.9283C2.71444 23.9384 2.33342 24.1048 2.0535 24.3918C1.77358 24.6789 1.61692 25.064 1.61692 25.4649C1.61692 25.8659 1.77358 26.2509 2.0535 26.538C2.33342 26.8251 2.71444 26.9914 3.11528 27.0016H18.2448C18.4499 27.0068 18.654 26.9708 18.8449 26.896C19.0359 26.8211 19.21 26.7087 19.3569 26.5655C19.5038 26.4223 19.6205 26.2511 19.7002 26.0621C19.7799 25.8731 19.821 25.6701 19.821 25.4649C19.821 25.2598 19.7799 25.0567 19.7002 24.8677C19.6205 24.6787 19.5038 24.5075 19.3569 24.3643C19.21 24.2211 19.0359 24.1088 18.8449 24.0339C18.654 23.959 18.4499 23.9231 18.2448 23.9283H3.11528ZM24.3928 25.4654C24.3928 24.6167 25.0813 23.9283 25.9301 23.9283H35.7555C36.1563 23.9384 36.5373 24.1048 36.8173 24.3918C37.0972 24.6789 37.2538 25.064 37.2538 25.4649C37.2538 25.8659 37.0972 26.2509 36.8173 26.538C36.5373 26.8251 36.1563 26.9914 35.7555 27.0016H25.9301C25.0813 27.0016 24.3928 26.3132 24.3928 25.4654ZM5.78948 18.003C5.78948 17.1542 6.47795 16.4658 7.32673 16.4658H32.2374C32.6451 16.4658 33.0361 16.6278 33.3244 16.916C33.6127 17.2043 33.7747 17.5953 33.7747 18.003C33.7747 18.4106 33.6127 18.8016 33.3244 19.0899C33.0361 19.3782 32.6451 19.5401 32.2374 19.5401H7.32673C6.47795 19.5401 5.78948 18.8517 5.78948 18.003ZM22.7317 38.8532C22.3308 38.8633 21.9498 39.0297 21.6699 39.3167C21.39 39.6038 21.2333 39.9889 21.2333 40.3898C21.2333 40.7908 21.39 41.1758 21.6699 41.4629C21.9498 41.75 22.3308 41.9163 22.7317 41.9265H36.8482C37.249 41.9163 37.63 41.75 37.91 41.4629C38.1899 41.1758 38.3465 40.7908 38.3465 40.3898C38.3465 39.9889 38.1899 39.6038 37.91 39.3167C37.63 39.0297 37.249 38.8633 36.8482 38.8532H22.7317ZM0.659424 40.3903C0.659424 39.5406 1.34789 38.8532 2.19569 38.8532H16.3132C16.714 38.8633 17.095 39.0297 17.375 39.3167C17.6549 39.6038 17.8116 39.9889 17.8116 40.3898C17.8116 40.7908 17.6549 41.1758 17.375 41.4629C17.095 41.75 16.714 41.9163 16.3132 41.9265H2.19569C1.34691 41.9265 0.659424 41.239 0.659424 40.3903ZM15.909 31.3907C15.5081 31.4009 15.1271 31.5672 14.8472 31.8543C14.5673 32.1414 14.4106 32.5264 14.4106 32.9274C14.4106 33.3283 14.5673 33.7134 14.8472 34.0005C15.1271 34.2875 15.5081 34.4539 15.909 34.464H32.2374C32.4425 34.4692 32.6465 34.4333 32.8375 34.3584C33.0285 34.2835 33.2026 34.1712 33.3495 34.028C33.4963 33.8848 33.6131 33.7136 33.6928 33.5246C33.7725 33.3356 33.8135 33.1325 33.8135 32.9274C33.8135 32.7222 33.7725 32.5192 33.6928 32.3302C33.6131 32.1411 33.4963 31.97 33.3495 31.8268C33.2026 31.6836 33.0285 31.5712 32.8375 31.4963C32.6465 31.4214 32.4425 31.3855 32.2374 31.3907H15.909ZM7.54901 32.9279C7.54901 32.0782 8.23747 31.3907 9.08527 31.3907H9.4236C9.62868 31.3855 9.83273 31.4214 10.0237 31.4963C10.2147 31.5712 10.3888 31.6836 10.5356 31.8268C10.6825 31.97 10.7993 32.1411 10.879 32.3302C10.9587 32.5192 10.9997 32.7222 10.9997 32.9274C10.9997 33.1325 10.9587 33.3356 10.879 33.5246C10.7993 33.7136 10.6825 33.8848 10.5356 34.028C10.3888 34.1712 10.2147 34.2835 10.0237 34.3584C9.83273 34.4333 9.62868 34.4692 9.4236 34.464H9.08527C8.23649 34.464 7.54901 33.7756 7.54901 32.9279Z" fill="#334155"/>
</g>
<defs>
<clipPath id="clip0_3_146">
<rect width="120" height="54.09" fill="white" transform="translate(0.5 0.422852)"/>
</clipPath>
</defs>
</svg>
